<svg width="146" height="30" fill="none" xmlns="http://www.w3.org/2000/svg"><g clip-path="url(#clip0_1502_8637)" fill="#000"><path fill-rule="evenodd" clip-rule="evenodd" d="M31.585 10.761H18.38V.227L31.453.223v2.132l-10.643.003V4.42h10.28v2.138H20.81v2.069h10.776v2.134zm102.578-2.145V2.344h9.34v6.272h-9.34zm-2.431-7.158v8.076a1.24 1.24 0 001.243 1.238h11.719a1.24 1.24 0 001.24-1.238V1.458a1.24 1.24 0 00-1.24-1.238h-11.719a1.235 1.235 0 00-1.243 1.238zm-23.126 3.939h-8.345V2.32h8.345v3.077zM97.826.217v10.555h2.432V7.594h9.535a1.24 1.24 0 001.24-1.238V1.458a1.24 1.24 0 00-1.24-1.238H97.827V.216zM82.483 10.772h-2.431v-3.15h-8.344v3.15h-2.431V1.458A1.24 1.24 0 0170.517.22H81.24c.684 0 1.243.554 1.243 1.238v9.314zM71.708 2.344v3.042h8.344V2.344h-8.344zm-56.155 0V.23H.164v2.114H6.65v8.41h2.428v-8.41h6.475zm48.813 7.228l-2.892-2.686h.024l-.003-.003h2.752c.684 0 1.236-.555 1.236-1.235V1.479c0-.684-.555-1.238-1.236-1.238H52.28v6.642h.003v3.872h2.424V6.883h3.598l4.135 3.872h3.19l-1.265-1.183zm-9.658-4.817V2.323h8.344v2.432h-8.344zm72.186 4.817l-2.892-2.686h.025l-.004-.003h2.752c.685 0 1.237-.555 1.237-1.235V1.479c0-.684-.555-1.238-1.237-1.238h-11.966v6.642h.004v3.872h2.424V6.883h3.597l4.136 3.872h3.189l-1.265-1.183zm-9.657-4.817V2.323h8.344v2.432h-8.344zM47.394 9.572l-2.892-2.686h.024l-.003-.003h2.752c.685 0 1.237-.555 1.237-1.235V1.479c0-.684-.556-1.238-1.237-1.238H35.31v6.642h.003v3.872h2.424V6.883h3.598l4.135 3.872h3.186l-1.261-1.183zm-9.658-4.817V2.323h8.345v2.432h-8.345z"/><path d="M116.954 29.735h1.079v-2.819l2.085-5.044h-1.037l-1.541 3.865-1.526-3.865h-1.135l2.075 5.044v2.819zm-4.733 0v-7.068h1.806v-.798h-4.705v.798h1.806v7.068h1.093zm-5.169-7.863v7.863h1.093v-7.863h-1.093zm-1.261 7.863v-.799h-2.802v-7.064h-1.093v7.863h3.895zm-7.912-6.876l1.108 4.539H96.8l1.08-4.539zm1.261 5.292l.377 1.584h1.094l-1.876-7.863h-1.582l-1.876 7.863h1.01l.377-1.584h2.476zm-8.78-4.776l2.507 6.36h1.135v-7.863h-.967v5.683l-2.27-5.683h-1.387v7.863h.981v-6.36zm-5.855.35c0-.709.378-1.134 1.163-1.134.8 0 1.164.425 1.164 1.133v4.159c0 .718-.364 1.133-1.163 1.133-.783 0-1.164-.415-1.164-1.133v-4.159zm-1.079 4.109c0 1.19.744 1.978 2.242 1.978 1.513 0 2.257-.789 2.257-1.978v-4.068c0-1.203-.744-1.978-2.257-1.978-1.498 0-2.242.775-2.242 1.978v4.068zm-3.503-6.042c-1.47 0-2.173.753-2.173 1.967 0 2.212 3.276 2.383 3.276 4.134 0 .708-.363 1.123-1.149 1.123-.785 0-1.149-.415-1.149-1.123v-.495h-1.023v.45c0 1.19.702 1.967 2.2 1.967 1.499 0 2.215-.774 2.215-1.967 0-2.212-3.29-2.383-3.29-4.145 0-.697.335-1.112 1.12-1.112.783 0 1.122.415 1.122 1.123v.258h1.037v-.213c0-1.193-.702-1.967-2.186-1.967zm-6.916 3.785v-2.91h1.065c.814 0 1.135.37 1.135 1.078v.754c0 .855-.516 1.078-1.386 1.078h-.814zm-1.093-3.705v7.863h1.093v-3.36h.768c.912 0 1.429.28 1.429 1.17v1.234c0 .527.056.73.182.956h1.107c-.182-.269-.196-.597-.196-.945v-1.225c0-.844-.335-1.427-1.233-1.64.842-.212 1.22-.753 1.22-1.618v-.642c0-1.168-.643-1.796-2.187-1.796h-2.183v.003zm-4.384 3.481v-2.686h2.941v-.798h-4.034v7.862h4.034v-.799h-2.94v-2.797h2.395v-.789H67.53v.007zm-5.672.492v-3.178h1.051c.8 0 1.122.36 1.122 1.078v1.043c0 .754-.392 1.057-1.206 1.057h-.967zm-1.093-3.973v7.863h1.093v-3.101h.967c1.555 0 2.285-.653 2.285-1.898v-.945c0-1.19-.657-1.922-2.2-1.922h-2.145v.003zM54.1 25.353v-2.686h2.941v-.798h-4.034v7.862h4.034v-.799h-2.94v-2.797h2.395v-.789H54.1v.007zm-2.35 4.382v-.799h-2.802v-7.064h-1.093v7.863h3.895zm-8.474-3.89v-3.178h1.051c.8 0 1.122.36 1.122 1.078v1.043c0 .754-.392 1.057-1.205 1.057h-.968zm-1.093-3.973v7.863h1.093v-3.101h.968c1.554 0 2.284-.653 2.284-1.898v-.945c0-1.19-.657-1.922-2.2-1.922h-2.145v.003zM39.59 23.41v6.325h1.038v-7.863h-1.527l-1.554 6.28-1.61-6.28H34.41v7.863h.954v-6.269l1.624 6.258h1.051l1.551-6.314zm-7.813-1.538v7.863h1.093v-7.863h-1.093zm-3.587-.08c-1.47 0-2.173.753-2.173 1.967 0 2.212 3.276 2.383 3.276 4.134 0 .708-.363 1.123-1.149 1.123s-1.149-.415-1.149-1.123v-.495h-1.023v.45c0 1.19.702 1.967 2.2 1.967 1.499 0 2.215-.774 2.215-1.967 0-2.212-3.29-2.383-3.29-4.145 0-.697.335-1.112 1.12-1.112.783 0 1.122.415 1.122 1.123v.258h1.037v-.213c0-1.193-.702-1.967-2.186-1.967z"/></g><defs><clipPath id="clip0_1502_8637"><path fill="#fff" d="M0 0h146v30H0z"/></clipPath></defs></svg>